<svg xmlns="http://www.w3.org/2000/svg" fill="none" viewBox="0 0 600 600"><path fill="#7099A6" d="M62.9 242.3v5.9H52.3v3.8h10.6v11.8h4V252h11v-3.8h-11v-11.8h-4z"/><path fill="#EB912C" d="M28.3 257.2v8.6h-16v5.4h16v17.4h6v-17.4h16.2v-5.4H34.3v-17.1h-6z"/><path fill="#59879B" d="M95.3 257.2v8.6h-16v5.7h16v17.1h6.2v-17.1h16v-5.7h-16v-17.1h-6.2z"/><path fill="#E8762C" d="M61.3 286.4v9.6H43.5v7.2h17.8v19.2h7.2v-19.2h17.8V296H68.5v-19.2h-7.2z"/><path fill="#5B6591" d="M113.6 291.3v6h-10.8v4.9h10.8v12h5.4v-12h11v-4.9h-11v-12h-5.4z"/><path fill="#7099A6" d="M10.6 291.8v5.8H0v4h10.6v11.6h4v-11.5l11-.4v-3.7h-11V286h-4z"/><path fill="#C72035" d="M28.3 319v8.5h-16v5.6h16v17.2h6.2V333h16v-5.6h-16v-17.1h-6.2z"/><path fill="#1F447E" d="M95.3 319v8.5h-16v5.4h16v17.4h6.2v-17.4h16v-5.4h-16v-17.1h-6.2z"/><path fill="#5B6591" d="M62.4 340.7v6H51.5v4.9h10.9v12h5.4v-12h10.8v-4.9H67.8v-12h-5.4z"/><path fill="#1F447E" d="M395.2 262v73H387v-73zm-204.5 10.2v23.3h22.1v7.7h-22.1v25h-8.3v-25h-22.1v-7.7h22.1v-23.3zm257.6 16c1.5 0 3.4.3 4.3.5a20 20 0 0 1 6.1 3 17 17 0 0 1 6.1 9.8c.3 1.2.6 3.4.9 8.1h-28.5l.2 1c0 .5.4 1.6.6 2.5a11 11 0 0 0 3.2 4.8l2 1.2 2.4.9a40 40 0 0 0 13.8-1l3.9-1.5c.1 0 .2 1.4.2 7v.7l-1.4.7a33 33 0 0 1-8.8 2.2 38 38 0 0 1-11-1c-1.3-.3-3.2-1-4.1-1.6a22 22 0 0 1-6.8-6.3 21 21 0 0 1-2.8-12.4c0-1.4.4-3.4.6-4.5a23 23 0 0 1 3.8-7.7l3-2.9a23 23 0 0 1 7.5-3.3q2.1-.3 4.8-.2m85.5-.4v12.9c0 7 0 15.6-.3 24.8l-2.1.6a48 48 0 0 1-17.6 1.4l-4-1c-1.4-.5-3.2-1.3-4.3-2s-2.5-2-3.3-2.8-1.8-2.2-2.3-3.1l-1.6-3.7a33 33 0 0 1-.6-11.3l1-3.7a20 20 0 0 1 4.6-7.2 18 18 0 0 1 7.2-4 29 29 0 0 1 9.7-.2c1 .2 2.7.7 3.6 1.2l1.7.7.1-1.1v-1.5zm-254.8 0v17.7c0 7.5 0 14.9-.4 20l-2 .6-5.3 1.2c-2.7.4-4 .5-7.8.4s-5.1-.2-6.7-.6a21 21 0 0 1-8.3-4.2 19 19 0 0 1-4.3-6.3 24 24 0 0 1-1.4-9.7c0-2.9.3-4.3.7-5.7.3-1.1 1-2.8 1.5-3.9a20 20 0 0 1 2.5-3.5c.9-1 2.2-2.2 3-2.7l3.2-1.7a22 22 0 0 1 11.8-1c1 .3 2.6.8 3.5 1.3l1.7.7.1-1.3v-1.3zm48.2-18.1v12.2c0 7.5 0 8 .5 7.9l2.7-.8a27 27 0 0 1 10.5-.5 19 19 0 0 1 8.2 3.9 19 19 0 0 1 5.9 11.1c.2 1.8.3 3.2.2 5.6 0 1.8-.3 4-.6 4.8a22 22 0 0 1-3.2 6.8 17 17 0 0 1-6.4 5c-1 .5-2.8 1-3.9 1.4-1.6.4-2.7.5-7.4.5a33 33 0 0 1-14.5-2.3l-.3-28v-27.6zm247.1 19.2V305c0 8 0 9.6.4 10.8v.1l.1.4q.5 1.6 1.4 2.6c.4.5 1.4 1.3 2.1 1.6a12 12 0 0 0 9.3 0q1.2-.6 2.1-1.6a9 9 0 0 0 1.5-3v-.1c.3-1.3.4-3.6.4-17.8v-9h8.4v13.9a95 95 0 0 1-.4 14.9l-.1.2v.2L598 321l-1.8 2.2a16 16 0 0 1-6.1 3.4q-2 .8-4.7.9h-5.1a20 20 0 0 1-8.3-2.4l-2.5-1.9c-.5-.5-1.4-1.5-1.8-2.2l-1.3-2.8v-.2l-.2-.3v-.2c-.3-1.3-.4-3.6-.4-14.7l-.1-14zm-57 6.9c-.9 0-2.2.2-3 .4l-2.7 1q-1.2.8-2.3 1.8a12 12 0 0 0-3 9 15 15 0 0 0 1.3 6.5c.3.6 1.1 1.7 1.8 2.4a10 10 0 0 0 4.9 2.8q1.4.3 4 .4a40 40 0 0 0 6.7-.7c.2-.1.3-3.2.4-10.7v-10.5q-3.7-1.8-4.8-2zm-257.9.4-2.6 1q-1.2.8-2.3 1.8a11 11 0 0 0-2.6 5.3 18 18 0 0 0 .8 10q.8 1.5 2.3 3 1.5 1.4 3 2c1.3.5 2.2.6 4.7.7a34 34 0 0 0 7.5-.6q.3 0 .4-10.6l.2-10.5-4-1.9c-.7-.2-2.3-.5-3.6-.5q-2.4-.2-3.8.3m75.7-.4c-1 0-2.3.1-2.9.3-.5 0-1.8.5-3 .9l-1.8.6V319c4 1.1 4.8 1.2 7.5 1.1s3.5-.2 4.8-.7q1.5-.6 2.6-1.4 1-.7 1.8-1.8c.4-.5 1-1.7 1.4-2.5a18 18 0 0 0 .8-7.8 13 13 0 0 0-3-6.9c-.6-.5-1.5-1.3-2.2-1.6a12 12 0 0 0-6-1.5m110.4.4q-1.4.4-2.8 1.2l-2.4 2a15 15 0 0 0-2.3 3.8q.1.2 8.4.3h10q-.4-2.8-.7-3.4-.4-1-1.3-2a6 6 0 0 0-2.5-1.6l-3.2-.6q-1.7 0-3.2.3"/></svg>